<svg width="28" height="28" viewBox="0 0 28 28" fill="none" xmlns="http://www.w3.org/2000/svg">
<g clip-path="url(#clip0_57_13)">
<path d="M26.6572 8.95995L25.6433 8.16662H25.6678V2.33329H23.3345V6.35945L16.1572 0.74312C14.8878 -0.25088 13.1133 -0.25088 11.844 0.74312L1.34283 8.95995C0.49 9.62729 0 10.633 0 11.7168V28H10.5V17.5C10.5 16.8571 11.0227 16.3333 11.6667 16.3333H16.3333C16.9773 16.3333 17.5 16.8571 17.5 17.5V28H28V11.7168C28 10.633 27.51 9.62729 26.6572 8.95995ZM25.6667 25.6666H19.8333V17.5C19.8333 15.5703 18.263 14 16.3333 14H11.6667C9.737 14 8.16667 15.5703 8.16667 17.5V25.6666H2.33333V11.7168C2.33333 11.3551 2.49667 11.0203 2.78133 10.7975L13.2813 2.58062C13.7048 2.24929 14.2952 2.24929 14.7187 2.58062L25.2187 10.7975C25.5033 11.0203 25.6667 11.3551 25.6667 11.7168V25.6666Z" fill="white"/>
</g>
<defs>
<clipPath id="clip0_57_13">
<rect width="28" height="28" fill="white"/>
</clipPath>
</defs>
</svg>
