<svg width="48" height="48" viewBox="0 0 48 48" fill="none" xmlns="http://www.w3.org/2000/svg">
<path d="M24 0C10.766 0 0 10.766 0 24C0 37.234 10.766 48 24 48C37.234 48 48 37.234 48 24C48 10.766 37.234 0 24 0ZM16 42.328V42C16 37.588 19.588 34 24 34C28.412 34 32 37.588 32 42V42.328C29.548 43.402 26.844 44 24 44C21.156 44 18.452 43.402 16 42.328ZM35.85 40.102C34.938 34.384 29.972 30 24 30C18.028 30 13.064 34.384 12.15 40.102C7.21 36.456 4 30.596 4 24C4 12.972 12.972 4 24 4C35.028 4 44 12.972 44 24C44 30.596 40.79 36.456 35.85 40.102ZM24 10C19.588 10 16 13.588 16 18C16 22.412 19.588 26 24 26C28.412 26 32 22.412 32 18C32 13.588 28.412 10 24 10ZM24 22C21.794 22 20 20.206 20 18C20 15.794 21.794 14 24 14C26.206 14 28 15.794 28 18C28 20.206 26.206 22 24 22Z" fill="#810503"/>
</svg>
