<svg width="70" height="70" viewBox="0 0 70 70" fill="none" xmlns="http://www.w3.org/2000/svg">
<path d="M35 70C54.33 70 70 54.33 70 35C70 15.67 54.33 0 35 0C15.67 0 0 15.67 0 35C0 54.33 15.67 70 35 70Z" fill="#2AB2BE"/>
<path d="M39.2191 16.3074L13.364 44.1883L39.1543 69.7536C42.5389 69.3531 45.7754 68.471 48.7929 67.1757C57.0315 63.6393 63.6385 57.032 67.1752 48.7933C67.6365 47.7183 68.0467 46.6158 68.4004 45.4886L39.2191 16.3074Z" fill="#27A5A8"/>
<path d="M69.7269 39.3874L54.0746 23.7352L27.8818 53.5294L42.9862 69.0841C57.0808 65.7945 67.9007 53.9891 69.7269 39.3874Z" fill="#259999"/>
<path d="M39.5106 43.6602C39.5106 44.6112 38.7398 45.3824 37.7884 45.3824H15.3325C14.3815 45.3824 13.6104 44.6115 13.6104 43.6602V23.6673L22.324 15.5978H37.7884C38.7394 15.5978 39.5106 16.3686 39.5106 17.32V43.6602Z" fill="#1C767E"/>
<path d="M22.1539 15.3729V23.4183H13.4546L22.1539 15.3729Z" fill="#55C1CB"/>
<path d="M13.6797 31.7883V23.6432H22.3759L13.6797 31.7883Z" fill="#15595F"/>
<path d="M35.3941 41.8049H19.8281C19.6229 41.8049 19.4561 41.6384 19.4561 41.4328V28.1262C19.4561 27.921 19.6225 27.7542 19.8281 27.7542H35.3941C35.5994 27.7542 35.7662 27.9206 35.7662 28.1262V41.4328C35.7659 41.6384 35.5994 41.8049 35.3941 41.8049ZM20.2002 41.0611H35.0221V28.4983H20.2002V41.0611Z" fill="#15595F"/>
<path d="M23.5835 41.805C23.3782 41.805 23.2114 41.6385 23.2114 41.4329V28.1263C23.2114 27.921 23.3779 27.7542 23.5835 27.7542C23.7887 27.7542 23.9555 27.9207 23.9555 28.1263V41.4329C23.9552 41.6385 23.7887 41.805 23.5835 41.805Z" fill="#15595F"/>
<path d="M35.3941 31.8925H19.8281C19.6229 31.8925 19.4561 31.7261 19.4561 31.5205C19.4561 31.3152 19.6225 31.1484 19.8281 31.1484H35.3941C35.5994 31.1484 35.7662 31.3149 35.7662 31.5205C35.7659 31.7261 35.5994 31.8925 35.3941 31.8925Z" fill="#15595F"/>
<path d="M35.3941 35.1518H19.8281C19.6229 35.1518 19.4561 34.9853 19.4561 34.7797C19.4561 34.5745 19.6225 34.4077 19.8281 34.4077H35.3941C35.5994 34.4077 35.7662 34.5741 35.7662 34.7797C35.7659 34.9853 35.5994 35.1518 35.3941 35.1518Z" fill="#15595F"/>
<path d="M35.3941 38.3197H19.8281C19.6229 38.3197 19.4561 38.1533 19.4561 37.9477C19.4561 37.7424 19.6225 37.5756 19.8281 37.5756H35.3941C35.5994 37.5756 35.7662 37.7421 35.7662 37.9477C35.7659 38.1533 35.5994 38.3197 35.3941 38.3197Z" fill="#15595F"/>
<path d="M54.8923 52.9838C54.8923 53.975 54.089 54.7783 53.0979 54.7783H29.6997C28.7085 54.7783 27.9053 53.975 27.9053 52.9838V32.1523L36.9843 23.7441H53.0975C54.0887 23.7441 54.8919 24.5474 54.8919 25.5385V52.9838H54.8923Z" fill="#F2F2F2"/>
<path d="M36.9699 23.7441V32.1272H27.9053L36.9699 23.7441Z" fill="#E6E6E6"/>
<path opacity="0.5" d="M27.9055 40.6169V32.1306H36.9668L27.9055 40.6169Z" fill="#B3B3B3"/>
<g opacity="0.5">
<path d="M49.1161 41.1992H35.4227C35.1934 41.1992 35.0076 40.9736 35.0076 40.6955C35.0076 40.4174 35.1934 40.1917 35.4227 40.1917H49.1161C49.3455 40.1917 49.5313 40.4174 49.5313 40.6955C49.5313 40.9736 49.3455 41.1992 49.1161 41.1992Z" fill="#B3B3B3"/>
<path d="M49.1161 45.243H35.4227C35.1934 45.243 35.0076 45.0173 35.0076 44.7392C35.0076 44.4611 35.1934 44.2355 35.4227 44.2355H49.1161C49.3455 44.2355 49.5313 44.4611 49.5313 44.7392C49.5313 45.0177 49.3455 45.243 49.1161 45.243Z" fill="#B3B3B3"/>
<path d="M42.2694 49.3038H35.4227C35.1934 49.3038 35.0076 49.0782 35.0076 48.8001C35.0076 48.522 35.1934 48.2963 35.4227 48.2963H42.2694C42.4988 48.2963 42.6846 48.522 42.6846 48.8001C42.6846 49.0782 42.4988 49.3038 42.2694 49.3038Z" fill="#B3B3B3"/>
<path d="M49.2297 36.999H35.5363C35.307 36.999 35.1211 36.7734 35.1211 36.4953C35.1211 36.2172 35.307 35.9915 35.5363 35.9915H49.2297C49.459 35.9915 49.6448 36.2172 49.6448 36.4953C49.6448 36.7734 49.459 36.999 49.2297 36.999Z" fill="#B3B3B3"/>
</g>
</svg>
