<svg width="84" height="43" viewBox="0 0 84 43" fill="none" xmlns="http://www.w3.org/2000/svg">
<path d="M80.2292 42.1822H68.7273C66.844 42.1822 65.2552 40.7914 64.9936 38.9263C64.4537 35.079 62.9709 31.5341 60.7861 28.533L76.1282 17.3862C80.4307 23.2976 83.2344 30.3696 83.9817 38.0443C84.1974 40.2613 82.4566 42.1822 80.2292 42.1822Z" fill="#17C36B"/>
<path d="M76.1283 17.3862L60.7863 28.5331C57.9347 24.6134 53.8856 21.6209 49.177 20.0923L55.0383 2.05353C63.5919 4.83096 70.9467 10.2666 76.1283 17.3862Z" fill="#9CCF40"/>
<path d="M34.8223 20.0922C30.1138 21.6213 26.0651 24.6138 23.2135 28.533L7.87158 17.3861C13.0527 10.267 20.408 4.83088 28.9612 2.05383H28.9616L34.8223 20.0922Z" fill="#EB9632"/>
<path d="M23.2135 28.533C21.0288 31.5341 19.546 35.0789 19.0061 38.9262C18.7444 40.7912 17.1556 42.1822 15.2723 42.1822H3.77043C1.54308 42.1822 -0.197694 40.2613 0.0181058 38.0444C0.765249 30.3697 3.5691 23.2976 7.87161 17.3862L23.2135 28.533Z" fill="#E23E44"/>
<path d="M55.0383 2.05341L49.177 20.0922C46.9168 19.3585 44.5049 18.9619 41.9999 18.9619C39.4948 18.9619 37.0829 19.3585 34.8227 20.0922H34.8222L28.9614 2.05389C33.0676 0.72043 37.4492 9.81673e-09 41.9998 9.81673e-09C46.5505 -9.711e-05 50.9322 0.720436 55.0383 2.05341Z" fill="#EDBE00"/>
</svg>
