<svg width="28" height="29" viewBox="0 0 28 29" fill="none" xmlns="http://www.w3.org/2000/svg">
<path d="M28 25.1826L19.565 2.29801C19.2427 1.41995 18.5982 0.719363 17.7481 0.327036C16.8992 -0.0676262 15.9476 -0.106158 15.0696 0.217278L13.9731 0.620114C13.6427 0.741548 13.3379 0.907353 13.0647 1.11403C12.4249 0.430956 11.5164 0.00243219 10.5088 0.00243219H3.50292C1.57164 0.00126456 0 1.57291 0 3.50418V28.0246H14.0117V10.8662L20.3263 27.9978L28 25.1826ZM21.7099 25.0028L20.5832 21.9447L23.8712 20.7385L24.998 23.7966L21.7099 25.0028ZM19.7751 19.7542L15.7013 8.70135L18.9893 7.49401L23.0632 18.5469L19.7751 19.7542ZM14.1203 3.41661C14.251 3.13404 14.4846 2.91803 14.7776 2.81061L15.8741 2.40777C16.0048 2.3599 16.1415 2.33538 16.2769 2.33538C16.4439 2.33538 16.6097 2.37157 16.7661 2.44397C17.0499 2.57474 17.2647 2.80827 17.3733 3.10252L18.1837 5.30235L14.8956 6.50969L14.0841 4.30869C13.9766 4.01561 13.9895 3.70035 14.1203 3.41661ZM11.6764 3.50418V5.83946H8.17348V2.33654H10.5088C11.1521 2.33654 11.6764 2.85965 11.6764 3.50418ZM8.17348 8.17474H11.6764V19.8511H8.17348V8.17474ZM5.8382 19.8511H2.33528V8.17474H5.8382V19.8511ZM3.50292 2.33654H5.8382V5.83946H2.33528V3.50418C2.33528 2.85965 2.85955 2.33654 3.50292 2.33654ZM2.33528 22.1864H5.8382V25.6893H2.33528V22.1864ZM8.17348 25.6893V22.1864H11.6764V25.6893H8.17348Z" fill="white"/>
</svg>
