<?xml version="1.0" encoding="UTF-8"?>
<svg version="1.1" xmlns="http://www.w3.org/2000/svg" width="75" height="83">
<path d="M0 0 C21.12 0 42.24 0 64 0 C64.0825 8.1675 64.165 16.335 64.25 24.75 C64.28641602 27.30331055 64.32283203 29.85662109 64.36035156 32.48730469 C64.37205214 34.54881962 64.3822407 36.61034391 64.390625 38.671875 C64.41108887 39.71166504 64.43155273 40.75145508 64.45263672 41.82275391 C64.45793991 53.16628925 61.38853242 62.39928648 54 71 C53.5875 71.56589844 53.175 72.13179688 52.75 72.71484375 C49.69981701 76.81854389 46.7699613 78.33051354 42 80 C41.29617187 80.30164063 40.59234375 80.60328125 39.8671875 80.9140625 C33.13737692 83.6106765 28.56805299 82.74762633 21.9375 80.2109375 C11.6538796 75.5913424 5.45845047 67.74264566 0.93554688 57.61694336 C-0.4448268 52.28024295 -0.24478598 47.09078177 -0.1953125 41.6015625 C-0.19229126 40.01831177 -0.19229126 40.01831177 -0.18920898 38.40307617 C-0.17878005 34.47700629 -0.15085754 30.55099858 -0.125 26.625 C-0.063125 13.445625 -0.063125 13.445625 0 0 Z " fill="#211806" transform="translate(1,0)"/>
<path d="M0 0 C21.12 0 42.24 0 64 0 C64.0825 8.1675 64.165 16.335 64.25 24.75 C64.28641602 27.30331055 64.32283203 29.85662109 64.36035156 32.48730469 C64.37205214 34.54881962 64.3822407 36.61034391 64.390625 38.671875 C64.41108887 39.71166504 64.43155273 40.75145508 64.45263672 41.82275391 C64.45793991 53.16628925 61.38853242 62.39928648 54 71 C53.5875 71.56589844 53.175 72.13179688 52.75 72.71484375 C49.69981701 76.81854389 46.7699613 78.33051354 42 80 C41.29617187 80.30164063 40.59234375 80.60328125 39.8671875 80.9140625 C33.13737692 83.6106765 28.56805299 82.74762633 21.9375 80.2109375 C11.6538796 75.5913424 5.45845047 67.74264566 0.93554688 57.61694336 C-0.4448268 52.28024295 -0.24478598 47.09078177 -0.1953125 41.6015625 C-0.19229126 40.01831177 -0.19229126 40.01831177 -0.18920898 38.40307617 C-0.17878005 34.47700629 -0.15085754 30.55099858 -0.125 26.625 C-0.063125 13.445625 -0.063125 13.445625 0 0 Z M5 5 C4.90055829 11.5103722 4.82826102 18.02029483 4.78027344 24.53125 C4.76025253 26.74259145 4.73302741 28.95388058 4.69824219 31.16503906 C4.64930373 34.35755378 4.62693533 37.54936396 4.609375 40.7421875 C4.58872986 41.71864227 4.56808472 42.69509705 4.54681396 43.70114136 C4.54352188 53.94623113 7.79932329 61.64219993 14.86328125 69.01953125 C19.89359499 73.68199755 24.72127694 76.79508529 31.7109375 77.19140625 C39.50840114 76.5393999 45.8354062 71.55926799 51 66 C57.03192515 58.08501192 58.29653702 50.91050824 58.1953125 41.1328125 C58.1924826 40.09808807 58.18965271 39.06336365 58.18673706 37.99728394 C58.17558048 34.70640286 58.15048397 31.41579822 58.125 28.125 C58.11496437 25.88802478 58.10583953 23.65104527 58.09765625 21.4140625 C58.0756559 15.94260252 58.041157 10.47134806 58 5 C54.7 5 51.4 5 48 5 C47.98541748 6.14476807 47.97083496 7.28953613 47.95581055 8.46899414 C47.89759239 12.73899697 47.82036172 17.00848538 47.73754883 21.27807617 C47.70440974 23.12174088 47.67634387 24.96550436 47.65356445 26.80932617 C47.61981488 29.46836208 47.56749034 32.12650187 47.51171875 34.78515625 C47.50213387 36.01057884 47.50213387 36.01057884 47.49235535 37.26075745 C47.35860006 42.53335609 46.49425594 46.32379572 44 51 C43.01 51.495 43.01 51.495 42 52 C42.65484375 50.91847656 43.3096875 49.83695313 43.984375 48.72265625 C47.49065843 40.83351852 46.4150561 31.88261097 46.25 23.4375 C46.22990747 21.64780641 46.21166156 19.85809108 46.1953125 18.06835938 C46.15495029 13.71125873 46.07662903 9.35721186 46 5 C36.43 5 26.86 5 17 5 C16.93097147 10.30241361 16.87128636 15.6032561 16.83520508 20.90576172 C16.8201576 22.70789892 16.7997147 24.50999973 16.77368164 26.31201172 C16.73711979 28.90862021 16.72023319 31.50474275 16.70703125 34.1015625 C16.69154739 34.9017984 16.67606354 35.7020343 16.66011047 36.52651978 C16.65864398 41.44735026 17.38070614 44.67982673 20 49 C19.505 49.495 19.505 49.495 19 50 C15.87782349 44.83150757 15.53381058 40.74048962 15.48828125 34.8828125 C15.47033005 34.02565643 15.45237885 33.16850037 15.43388367 32.28536987 C15.37998595 29.56529564 15.34595142 26.8453948 15.3125 24.125 C15.27930874 22.27341348 15.24481741 20.42184978 15.20898438 18.5703125 C15.12427148 14.04700052 15.0573628 9.52373814 15 5 C11.7 5 8.4 5 5 5 Z " fill="#F6F606" transform="translate(1,0)"/>
<path d="M0 0 C9.57 0 19.14 0 29 0 C29.09229308 5.24788736 29.17178598 10.4929117 29.21972656 15.7409668 C29.23972905 17.52263986 29.26694023 19.30424823 29.30175781 21.08569336 C29.64901503 39.32180392 29.64901503 39.32180392 25 47 C18.40669856 46.23923445 18.40669856 46.23923445 15.875 44.75 C15.25625 44.5025 14.6375 44.255 14 44 C12.30712215 44.95495674 10.64142963 45.9590934 9 47 C6.1875 47.1875 6.1875 47.1875 4 47 C-1.45491221 37.99080445 -0.44884342 28.61134217 -0.25 18.4375 C-0.22990747 16.64780641 -0.21166156 14.85809108 -0.1953125 13.06835938 C-0.15495029 8.71125873 -0.07662903 4.35721186 0 0 Z " fill="#C9261C" transform="translate(18,5)"/>
<path d="M0 0 C8.91 0 17.82 0 27 0 C27 0.66 27 1.32 27 2 C25.68 2.33 24.36 2.66 23 3 C23 3.66 23 4.32 23 5 C23.99 5 24.98 5 26 5 C26 4.34 26 3.68 26 3 C26.66 3 27.32 3 28 3 C28 3.66 28 4.32 28 5 C28.66 5 29.32 5 30 5 C30 4.34 30 3.68 30 3 C30.66 3 31.32 3 32 3 C32 3.66 32 4.32 32 5 C32.99 5 33.98 5 35 5 C35 4.01 35 3.02 35 2 C33.35 2 31.7 2 30 2 C30 1.34 30 0.68 30 0 C36.27 0 42.54 0 49 0 C47.55780034 10.09539765 42.94947219 15.02473448 35 21 C30.24705494 23.81185681 25.74378727 24.57720052 20.29296875 23.6953125 C11.95109109 21.16574824 5.29864771 14.34272776 0.80859375 7.0703125 C0 5 0 5 0 0 Z " fill="#0D0C08" transform="translate(8,53)"/>
<path d="M0 0 C21.12 0 42.24 0 64 0 C64.0825 8.1675 64.165 16.335 64.25 24.75 C64.28641602 27.30331055 64.32283203 29.85662109 64.36035156 32.48730469 C64.37205214 34.54881962 64.3822407 36.61034391 64.390625 38.671875 C64.41108887 39.71166504 64.43155273 40.75145508 64.45263672 41.82275391 C64.45793991 53.16628925 61.38853242 62.39928648 54 71 C53.5875 71.56589844 53.175 72.13179688 52.75 72.71484375 C49.69981701 76.81854389 46.7699613 78.33051354 42 80 C41.29617187 80.30164063 40.59234375 80.60328125 39.8671875 80.9140625 C33.13737692 83.6106765 28.56805299 82.74762633 21.9375 80.2109375 C11.6538796 75.5913424 5.45845047 67.74264566 0.93554688 57.61694336 C-0.4448268 52.28024295 -0.24478598 47.09078177 -0.1953125 41.6015625 C-0.19229126 40.01831177 -0.19229126 40.01831177 -0.18920898 38.40307617 C-0.17878005 34.47700629 -0.15085754 30.55099858 -0.125 26.625 C-0.063125 13.445625 -0.063125 13.445625 0 0 Z M2 2 C1.896875 9.981875 1.79375 17.96375 1.6875 26.1875 C1.64197998 28.67949951 1.59645996 31.17149902 1.54956055 33.73901367 C1.40678105 47.15314452 1.31168444 60.19470914 11.265625 70.5078125 C17.29794917 75.69778509 23.30155295 79.46810033 31.3125 80.375 C40.16941989 79.47429628 48.39682682 74.41885215 53.984375 67.56640625 C58.17597851 61.7379989 61.26210915 56.91186604 61.22705078 49.56713867 C61.22680908 48.491698 61.22656738 47.41625732 61.22631836 46.30822754 C61.21608643 45.18944214 61.20585449 44.07065674 61.1953125 42.91796875 C61.19329834 41.88111938 61.19128418 40.84427002 61.18920898 39.77600098 C61.17876686 35.91312214 61.15084429 32.0503065 61.125 28.1875 C61.08375 19.545625 61.0425 10.90375 61 2 C41.53 2 22.06 2 2 2 Z " fill="#28280A" transform="translate(1,0)"/>
<path d="M0 0 C9.57 0 19.14 0 29 0 C29.09229308 5.24788736 29.17178598 10.4929117 29.21972656 15.7409668 C29.23972905 17.52263986 29.26694023 19.30424823 29.30175781 21.08569336 C29.64901503 39.32180392 29.64901503 39.32180392 25 47 C21.66951215 45.44806133 19.95669861 44.16798823 18 41 C17.1230312 38.1642569 16.88120081 35.63188709 16.90234375 32.671875 C16.90556641 31.87265625 16.90878906 31.0734375 16.91210938 30.25 C16.92048828 29.425 16.92886719 28.6 16.9375 27.75 C16.94201172 26.90953125 16.94652344 26.0690625 16.95117188 25.203125 C16.96292039 23.13538599 16.98085478 21.06768376 17 19 C17.99 19 18.98 19 20 19 C20.33 16.69 20.66 14.38 21 12 C21.99 11.67 22.98 11.34 24 11 C24.33 10.01 24.66 9.02 25 8 C24.01 8 23.02 8 22 8 C21.67 6.35 21.34 4.7 21 3 C20.01 3 19.02 3 18 3 C17.67 3.99 17.34 4.98 17 6 C16.34 4.68 15.68 3.36 15 2 C8.07 1.505 8.07 1.505 1 1 C1 13.21 1 25.42 1 38 C0.67 38 0.34 38 0 38 C0 25.46 0 12.92 0 0 Z " fill="#AB2917" transform="translate(18,5)"/>
<path d="M0 0 C13.2 0 26.4 0 40 0 C35.78832521 7.01945798 30.0746523 13.12742931 22.0625 15.6796875 C18.30433974 16.26334118 14.70797357 15.71241159 11 15 C11.7421875 11.21875 11.7421875 11.21875 14.0625 9.25 C14.701875 8.8375 15.34125 8.425 16 8 C14.2528117 4.94715113 13.26095595 4.08709364 9.86328125 2.953125 C8.69152344 2.72109375 7.51976562 2.4890625 6.3125 2.25 C4.54326172 1.88648438 4.54326172 1.88648438 2.73828125 1.515625 C1.83464844 1.34546875 0.93101563 1.1753125 0 1 C0 0.67 0 0.34 0 0 Z " fill="#050506" transform="translate(15,61)"/>
<path d="M0 0 C3.3 0 6.6 0 10 0 C10 12.21 10 24.42 10 37 C9.34 36.34 8.68 35.68 8 35 C8 35.66 8 36.32 8 37 C6.35 37 4.7 37 3 37 C3 36.34 3 35.68 3 35 C3.66 35 4.32 35 5 35 C4.34 34.01 3.68 33.02 3 32 C2.60041513 28.57982443 2.4364652 25.12706959 4 22 C3.34 22 2.68 22 2 22 C-0.10209857 18.84685215 -0.2434761 18.13896919 -0.1953125 14.55078125 C-0.18886719 13.70322266 -0.18242188 12.85566406 -0.17578125 11.98242188 C-0.15902344 11.10134766 -0.14226563 10.22027344 -0.125 9.3125 C-0.11597656 8.41982422 -0.10695313 7.52714844 -0.09765625 6.60742188 C-0.07409915 4.40483334 -0.03822844 2.20238275 0 0 Z " fill="#1A1805" transform="translate(6,5)"/>
<path d="M0 0 C0.99 0.495 0.99 0.495 2 1 C2 1.66 2 2.32 2 3 C2.66 3 3.32 3 4 3 C3.98839844 3.68707031 3.97679687 4.37414062 3.96484375 5.08203125 C3.95582031 5.98308594 3.94679688 6.88414063 3.9375 7.8125 C3.92589844 8.70582031 3.91429687 9.59914063 3.90234375 10.51953125 C3.88990033 13.13413791 3.88990033 13.13413791 5 16 C4.34 16 3.68 16 3 16 C3 16.66 3 17.32 3 18 C3.99 17.67 4.98 17.34 6 17 C6.66 17.33 7.32 17.66 8 18 C7.67 17.01 7.34 16.02 7 15 C7.66 14.67 8.32 14.34 9 14 C9.26554688 14.77085938 9.53109375 15.54171875 9.8046875 16.3359375 C10.15789063 17.33882812 10.51109375 18.34171875 10.875 19.375 C11.39707031 20.87160156 11.39707031 20.87160156 11.9296875 22.3984375 C12.84782502 25.10442118 12.84782502 25.10442118 15 27 C17.68839385 27.26991906 20.29141936 27.08737357 23 27 C23.33 26.34 23.66 25.68 24 25 C24.99 24.34 25.98 23.68 27 23 C27.66 23.66 28.32 24.32 29 25 C32.58144392 27.38762928 35.78839634 27.16198476 40 27 C40.495 27.99 40.495 27.99 41 29 C37.67465243 30.10844919 35.37817425 29.84454356 32 29 C32 29.66 32 30.32 32 31 C33.65 31 35.3 31 37 31 C37 31.99 37 32.98 37 34 C36.01 34 35.02 34 34 34 C34 33.34 34 32.68 34 32 C33.34 32 32.68 32 32 32 C32 32.66 32 33.32 32 34 C31.34 34 30.68 34 30 34 C30 33.34 30 32.68 30 32 C29.34 32 28.68 32 28 32 C28 32.66 28 33.32 28 34 C27.01 34 26.02 34 25 34 C24.67 33.01 24.34 32.02 24 31 C25.65 31 27.3 31 29 31 C29 30.34 29 29.68 29 29 C27.700625 29.2475 27.700625 29.2475 26.375 29.5 C18.352247 30.64845135 9.94868358 30.52440507 2 29 C1.67 29.66 1.34 30.32 1 31 C-0.11911712 27.64264863 -0.11365586 25.11794614 -0.09765625 21.58203125 C-0.09443359 20.32841797 -0.09121094 19.07480469 -0.08789062 17.78320312 C-0.07951172 16.47287109 -0.07113281 15.16253906 -0.0625 13.8125 C-0.05748317 12.47721519 -0.05292059 11.14192859 -0.04882812 9.80664062 C-0.03702695 6.53771527 -0.02056297 3.26888009 0 0 Z " fill="#2C3F33" transform="translate(6,24)"/>
<path d="M0 0 C1.12109375 1.703125 1.12109375 1.703125 2 4 C-0.65182757 13.33697371 -7.79888524 21.29751234 -16.09375 26.03515625 C-21.68317518 28.86423006 -27.01359615 30.26643877 -33.1640625 28.3125 C-42.3909379 24.50760293 -49.45758108 19.0376847 -54 10 C-54.66015625 7.22265625 -54.66015625 7.22265625 -55 5 C-54.01 4.67 -53.02 4.34 -52 4 C-51.74347656 4.6290625 -51.48695312 5.258125 -51.22265625 5.90625 C-47.61916169 13.9625476 -42.43396427 19.96636031 -34.5 24.0625 C-27.82811753 25.84961138 -21.89655928 24.62963165 -15.91015625 21.2734375 C-8.88867267 16.59244844 -5.90966582 11.36242544 -3.04296875 3.4765625 C-2 1 -2 1 0 0 Z " fill="#ECEC0B" transform="translate(60,51)"/>
<path d="M0 0 C0.99 0.33 1.98 0.66 3 1 C3.33333333 2.33333333 3.66666667 3.66666667 4 5 C4.99 5.33 5.98 5.66 7 6 C6.67 6.66 6.34 7.32 6 8 C4.35 8 2.7 8 1 8 C1 8.99 1 9.98 1 11 C4.465 10.505 4.465 10.505 8 10 C8 8.68 8 7.36 8 6 C8.66 5.67 9.32 5.34 10 5 C9.34 4.34 8.68 3.68 8 3 C9.98 3 11.96 3 14 3 C13.01 3.495 13.01 3.495 12 4 C12 5.65 12 7.3 12 9 C11.34 9 10.68 9 10 9 C10.33 10.65 10.66 12.3 11 14 C9.68 13.67 8.36 13.34 7 13 C7.11430048 15.8966148 7.2410424 18.79178316 7.375 21.6875 C7.4059375 22.50412109 7.436875 23.32074219 7.46875 24.16210938 C7.81463929 31.28166397 9.28552214 35.49977583 14 41 C8.38709677 40.23460411 8.38709677 40.23460411 5.9375 38.75 C5.298125 38.5025 4.65875 38.255 4 38 C2.31503702 38.96885372 0.64821244 39.96986723 -1 41 C-3.3125 40.6875 -3.3125 40.6875 -5 40 C-3.824375 38.9790625 -3.824375 38.9790625 -2.625 37.9375 C2.007044 32.75402219 2.26685804 26.80750695 2.625 20.0625 C2.66367187 19.37865234 2.70234375 18.69480469 2.7421875 17.99023438 C2.83522412 16.32720487 2.91863787 14.66364153 3 13 C1.68 13.33 0.36 13.66 -1 14 C-0.67 12.35 -0.34 10.7 0 9 C-0.99 8.67 -1.98 8.34 -3 8 C-1.35 7.01 0.3 6.02 2 5 C0.35 5 -1.3 5 -3 5 C-3.33 4.34 -3.66 3.68 -4 3 C-2.35 3 -0.7 3 1 3 C0.67 2.01 0.34 1.02 0 0 Z " fill="#865647" transform="translate(28,11)"/>
<path d="M0 0 C4.62 0 9.24 0 14 0 C14.33 0.99 14.66 1.98 15 3 C16.32 2.67 17.64 2.34 19 2 C19.33 3.65 19.66 5.3 20 7 C20.99 7 21.98 7 23 7 C22.67 8.32 22.34 9.64 22 11 C21.34 11 20.68 11 20 11 C19.67 10.67 19.34 10.34 19 10 C16.7226499 12.81509993 16.7226499 12.81509993 17 16 C14.36 16 11.72 16 9 16 C9 15.01 9 14.02 9 13 C10.65 12.67 12.3 12.34 14 12 C12.68 10.02 11.36 8.04 10 6 C9.67 6.66 9.34 7.32 9 8 C8.01 8.33 7.02 8.66 6 9 C7.65 9.33 9.3 9.66 11 10 C9.6875 11.5 9.6875 11.5 8 13 C7.01 13 6.02 13 5 13 C5 13.99 5 14.98 5 16 C3.68 16 2.36 16 1 16 C1 14.35 1 12.7 1 11 C1.66 10.67 2.32 10.34 3 10 C3 9.34 3 8.68 3 8 C2.34 8 1.68 8 1 8 C0.67 5.36 0.34 2.72 0 0 Z " fill="#D3251C" transform="translate(20,6)"/>
<path d="M0 0 C8.91 0 17.82 0 27 0 C27 0.66 27 1.32 27 2 C25.68 2.33 24.36 2.66 23 3 C23 3.66 23 4.32 23 5 C23.99 5 24.98 5 26 5 C26 4.34 26 3.68 26 3 C26.66 3 27.32 3 28 3 C28 3.66 28 4.32 28 5 C28.66 5 29.32 5 30 5 C30 4.34 30 3.68 30 3 C30.66 3 31.32 3 32 3 C32 3.66 32 4.32 32 5 C32.78375 4.814375 33.5675 4.62875 34.375 4.4375 C37 4 37 4 39 5 C39 4.34 39 3.68 39 3 C39.66 3 40.32 3 41 3 C41 3.66 41 4.32 41 5 C41.99 5 42.98 5 44 5 C44 4.34 44 3.68 44 3 C44.66 3 45.32 3 46 3 C46.495 4.485 46.495 4.485 47 6 C32.15 6 17.3 6 2 6 C2.33 5.01 2.66 4.02 3 3 C2.01 2.67 1.02 2.34 0 2 C0 1.34 0 0.68 0 0 Z " fill="#8A8A8A" transform="translate(8,53)"/>
<path d="M0 0 C6.27 0 12.54 0 19 0 C18 7 18 7 17 8 C15.61839885 8.0927833 14.23211962 8.11747043 12.84741211 8.11352539 C11.96657455 8.11344986 11.085737 8.11337433 10.1782074 8.11329651 C9.22092239 8.10813522 8.26363739 8.10297394 7.27734375 8.09765625 C6.30213272 8.0962413 5.32692169 8.09482635 4.32215881 8.09336853 C1.19390857 8.08775133 -1.93427123 8.07519593 -5.0625 8.0625 C-7.17773334 8.05748722 -9.29296781 8.05292393 -11.40820312 8.04882812 C-16.60549296 8.03777631 -21.80274145 8.02102146 -27 8 C-27 7.34 -27 6.68 -27 6 C-12.81 5.67 1.38 5.34 16 5 C16 4.34 16 3.68 16 3 C15.34 3 14.68 3 14 3 C14 3.66 14 4.32 14 5 C13.01 5 12.02 5 11 5 C11 4.34 11 3.68 11 3 C10.34 3 9.68 3 9 3 C9 3.66 9 4.32 9 5 C7.68 4.67 6.36 4.34 5 4 C5 3.34 5 2.68 5 2 C3.35 2 1.7 2 0 2 C0 1.34 0 0.68 0 0 Z " fill="#5D5D5C" transform="translate(38,53)"/>
<path d="M0 0 C2 1.3125 2 1.3125 4 4 C4.36089448 7.68855385 4.22933459 11.3051649 4 15 C3.01 15.495 3.01 15.495 2 16 C2.33 16.33 2.66 16.66 3 17 C3.04063832 18.66617115 3.042721 20.33388095 3 22 C2.34 22 1.68 22 1 22 C1.66 22.99 2.32 23.98 3 25 C3.125 27.6875 3.125 27.6875 3 30 C2.34 29.01 1.68 28.02 1 27 C1.495 28.0828125 1.495 28.0828125 2 29.1875 C3.00603529 32.01697427 3.16977402 34.02895466 3 37 C1.33333333 37 -0.33333333 37 -2 37 C-2.04943465 32.21282458 -2.08573582 27.42579773 -2.10986328 22.63842773 C-2.11992142 21.00982068 -2.13356958 19.38123168 -2.15087891 17.75268555 C-2.17513574 15.41190128 -2.18648483 13.07135576 -2.1953125 10.73046875 C-2.20563507 10.00224411 -2.21595764 9.27401947 -2.22659302 8.52372742 C-2.22742249 4.78724931 -2.12883296 3.19324944 0 0 Z " fill="#A07712" transform="translate(54,10)"/>
<path d="M0 0 C1.32 0.33 2.64 0.66 4 1 C-0.24860632 6.2042199 -4.36629298 10.32084439 -10 14 C-11.32 13.34 -12.64 12.68 -14 12 C-14 11.34 -14 10.68 -14 10 C-15.32 9.67 -16.64 9.34 -18 9 C-16.0773132 5.34689508 -14.83141906 3.54492704 -11 2 C-8.7109375 1.55078125 -8.7109375 1.55078125 -6.375 1.3125 C-5.59898438 1.22613281 -4.82296875 1.13976563 -4.0234375 1.05078125 C-2 1 -2 1 0 2 C0 1.34 0 0.68 0 0 Z " fill="#0D0C09" transform="translate(51,61)"/>
<path d="M0 0 C0.33 0 0.66 0 1 0 C1.33 4.62 1.66 9.24 2 14 C3.32 13.67 4.64 13.34 6 13 C6.309375 13.94875 6.61875 14.8975 6.9375 15.875 C7.87394742 18.86080408 7.87394742 18.86080408 9 21 C9.0969632 22.95637514 9.12978917 24.91622931 9.125 26.875 C9.12757812 27.92429687 9.13015625 28.97359375 9.1328125 30.0546875 C9.01998664 32.55676685 8.72508762 34.61756923 8 37 C6.35 37 4.7 37 3 37 C3 36.34 3 35.68 3 35 C3.66 35 4.32 35 5 35 C4.34 34.01 3.68 33.02 3 32 C2.60041513 28.57982443 2.4364652 25.12706959 4 22 C3.34 22 2.68 22 2 22 C-0.10209857 18.84685215 -0.2434761 18.13896919 -0.1953125 14.55078125 C-0.18886719 13.70322266 -0.18242188 12.85566406 -0.17578125 11.98242188 C-0.15902344 11.10134766 -0.14226563 10.22027344 -0.125 9.3125 C-0.11597656 8.41982422 -0.10695313 7.52714844 -0.09765625 6.60742188 C-0.07409748 4.40467686 -0.04120329 2.20247412 0 0 Z " fill="#1A1B09" transform="translate(6,5)"/>
<path d="M0 0 C13.53 0 27.06 0 41 0 C41 0.33 41 0.66 41 1 C31.43 1 21.86 1 12 1 C12.07414595 6.30271406 12.15710435 11.60378617 12.26245117 16.90576172 C12.29561773 18.70775729 12.32367525 20.50985467 12.34643555 22.31201172 C12.38013432 24.90896823 12.43245649 27.50499866 12.48828125 30.1015625 C12.49467117 30.9017984 12.5010611 31.7020343 12.50764465 32.52651978 C12.63669103 37.48346324 13.62777611 40.55882768 16 45 C15.67 45.99 15.34 46.98 15 48 C10.24568062 42.32548977 9.85779019 38.40610746 9.90234375 31.17578125 C9.9037587 30.31438034 9.90517365 29.45297943 9.90663147 28.56547546 C9.9122286 25.81444831 9.92478054 23.06350256 9.9375 20.3125 C9.94251537 18.4472668 9.94707821 16.58203233 9.95117188 14.71679688 C9.96219708 10.14449989 9.97945973 5.57226375 10 1 C6.7 1 3.4 1 0 1 C0 0.67 0 0.34 0 0 Z " fill="#E9E910" transform="translate(6,4)"/>
<path d="M0 0 C3.96 0 7.92 0 12 0 C12 11.55 12 23.1 12 35 C11.01 35 10.02 35 9 35 C9 27.41 9 19.82 9 12 C7.68 11.67 6.36 11.34 5 11 C5.99 10.67 6.98 10.34 8 10 C8.33 9.01 8.66 8.02 9 7 C8.01 7 7.02 7 6 7 C5.67 5.35 5.34 3.7 5 2 C4.01 2 3.02 2 2 2 C1.67 2.99 1.34 3.98 1 5 C0.34 3.68 -0.32 2.36 -1 1 C-0.67 0.67 -0.34 0.34 0 0 Z " fill="#DC231C" transform="translate(34,6)"/>
<path d="M0 0 C1.12109375 1.703125 1.12109375 1.703125 2 4 C-0.61478708 13.20655571 -7.84054363 21.45344353 -16 26.234375 C-19.31619806 27.50385707 -21.62208715 26.9148514 -25 26 C-22.68330248 24.45553499 -20.75183254 23.41830998 -18.25 22.3125 C-9.76095019 18.0290345 -6.24763934 12.29214098 -3.04296875 3.4765625 C-2 1 -2 1 0 0 Z " fill="#E4E50B" transform="translate(60,51)"/>
<path d="M0 0 C1.175625 0.7115625 1.175625 0.7115625 2.375 1.4375 C6.59210109 3.94767922 9.0543112 4.09158683 14 4 C14.33 4.66 14.66 5.32 15 6 C11.67465243 7.10844919 9.37817425 6.84454356 6 6 C6 6.66 6 7.32 6 8 C7.65 8 9.3 8 11 8 C11 8.99 11 9.98 11 11 C10.01 11 9.02 11 8 11 C8 10.34 8 9.68 8 9 C7.34 9 6.68 9 6 9 C6 9.66 6 10.32 6 11 C5.34 11 4.68 11 4 11 C4 10.34 4 9.68 4 9 C3.34 9 2.68 9 2 9 C2 9.66 2 10.32 2 11 C1.01 11 0.02 11 -1 11 C-1.33 10.01 -1.66 9.02 -2 8 C-0.35 8 1.3 8 3 8 C3 7.34 3 6.68 3 6 C1.989375 6.165 0.97875 6.33 -0.0625 6.5 C-3.76262933 6.96985769 -7.27607391 7.07599849 -11 7 C-11 6.01 -11 5.02 -11 4 C-8.36 4 -5.72 4 -3 4 C-2.67 3.34 -2.34 2.68 -2 2 C-1.34 1.34 -0.68 0.68 0 0 Z " fill="#151512" transform="translate(32,47)"/>
<path d="M0 0 C0.33 0 0.66 0 1 0 C1.00142502 0.59753586 1.00285004 1.19507172 1.00431824 1.81071472 C1.02416863 8.09032756 1.07876628 14.36898828 1.15258789 20.64819336 C1.17563236 22.98438663 1.19013141 25.3206818 1.19555664 27.65698242 C1.20644473 45.91637211 1.20644473 45.91637211 7 63 C7.37431517 64.32241334 7.72489354 65.65344687 8 67 C2.3782233 62.31518608 -0.53061595 56.42007962 -1.3079834 49.09979248 C-1.36505886 45.93877361 -1.29557851 42.80750625 -1.171875 39.6484375 C-1.14401917 38.50839264 -1.11616333 37.36834778 -1.08746338 36.1937561 C-0.99480724 32.58663467 -0.87288952 28.98120508 -0.75 25.375 C-0.68165128 22.91541779 -0.61522578 20.45578135 -0.55078125 17.99609375 C-0.38942071 11.99658923 -0.20409011 5.99819494 0 0 Z " fill="#3D3B17" transform="translate(2,2)"/>
<path d="M0 0 C0.33 0 0.66 0 1 0 C1.05410687 1.77049689 1.09284119 3.54146849 1.125 5.3125 C1.14820313 6.29863281 1.17140625 7.28476562 1.1953125 8.30078125 C1 11 1 11 -1 14 C-1 13.34 -1 12.68 -1 12 C-2.0725 12.20625 -3.145 12.4125 -4.25 12.625 C-7.87619096 12.9876191 -9.08291076 12.98362069 -12 11 C-11.37240135 8.07120629 -10.41377341 5.63904371 -9 3 C-9 3.99 -9 4.98 -9 6 C-8.34 6 -7.68 6 -7 6 C-6.67 4.68 -6.34 3.36 -6 2 C-6 3.32 -6 4.64 -6 6 C-5.34 6 -4.68 6 -4 6 C-3.67 5.34 -3.34 4.68 -3 4 C-2.01 4.66 -1.02 5.32 0 6 C0 4.02 0 2.04 0 0 Z " fill="#120D08" transform="translate(58,41)"/>
<path d="M0 0 C0.33 1.32 0.66 2.64 1 4 C1.66 4 2.32 4 3 4 C3.33 5.32 3.66 6.64 4 8 C3.01 7.67 2.02 7.34 1 7 C1 8.65 1 10.3 1 12 C2.32 12 3.64 12 5 12 C5 11.34 5 10.68 5 10 C5.99 10 6.98 10 8 10 C6.3343442 14.74071266 6.3343442 14.74071266 4.46875 16.1875 C2.17805343 19.01431704 2.4267074 22.1927535 2.3125 25.6875 C2.27833984 26.38939453 2.24417969 27.09128906 2.20898438 27.81445312 C2.12670053 29.54241387 2.0616676 31.27118072 2 33 C1.34 33 0.68 33 0 33 C0 22.11 0 11.22 0 0 Z " fill="#D8241D" transform="translate(20,10)"/>
<path d="M0 0 C2.475 0.99 2.475 0.99 5 2 C5 1.34 5 0.68 5 0 C5.66 0 6.32 0 7 0 C7 0.66 7 1.32 7 2 C7.8971875 1.7215625 7.8971875 1.7215625 8.8125 1.4375 C11 1 11 1 14 2 C14 1.34 14 0.68 14 0 C14.66 0 15.32 0 16 0 C16 0.66 16 1.32 16 2 C17.32 1.34 18.64 0.68 20 0 C20 0.66 20 1.32 20 2 C20.99 2 21.98 2 23 2 C23 1.34 23 0.68 23 0 C23.66 0 24.32 0 25 0 C25 0.66 25 1.32 25 2 C25.66 2 26.32 2 27 2 C27 1.34 27 0.68 27 0 C27.66 0 28.32 0 29 0 C29 0.66 29 1.32 29 2 C30.175625 1.7215625 30.175625 1.7215625 31.375 1.4375 C34 1 34 1 36 2 C36 1.34 36 0.68 36 0 C36.66 0 37.32 0 38 0 C38 0.66 38 1.32 38 2 C38.99 2 39.98 2 41 2 C41 1.34 41 0.68 41 0 C41.66 0 42.32 0 43 0 C43.495 1.485 43.495 1.485 44 3 C29.15 3 14.3 3 -1 3 C-0.67 2.01 -0.34 1.02 0 0 Z " fill="#EBEBEB" transform="translate(11,56)"/>
<path d="M0 0 C0.99 0.66 1.98 1.32 3 2 C3.1875 4.625 3.1875 4.625 3 7 C2.34 7 1.68 7 1 7 C1.99 8.485 1.99 8.485 3 10 C3.125 12.6875 3.125 12.6875 3 15 C2.34 14.01 1.68 13.02 1 12 C1.495 13.0828125 1.495 13.0828125 2 14.1875 C3.00603529 17.01697427 3.16977402 19.02895466 3 22 C1.33333333 22 -0.33333333 22 -2 22 C-2.05807043 18.89591193 -2.09361914 15.7919636 -2.125 12.6875 C-2.14175781 11.80642578 -2.15851562 10.92535156 -2.17578125 10.01757812 C-2.18222656 9.17001953 -2.18867187 8.32246094 -2.1953125 7.44921875 C-2.20578613 6.66893311 -2.21625977 5.88864746 -2.22705078 5.0847168 C-2 3 -2 3 0 0 Z " fill="#B99213" transform="translate(54,25)"/>
<path d="M0 0 C0 0.66 0 1.32 0 2 C-0.59167969 2.18175781 -1.18335937 2.36351563 -1.79296875 2.55078125 C-5.40532742 3.69990024 -8.57775211 4.73726798 -11.8125 6.75 C-14 8 -14 8 -16.3125 7.6875 C-16.869375 7.460625 -17.42625 7.23375 -18 7 C-16.11358072 3.41580337 -14.91789037 1.27066715 -11 0 C-7.09472914 -0.75101363 -3.85607371 -1.2853579 0 0 Z " fill="#6D6950" transform="translate(51,63)"/>
<path d="M0 0 C3.125 -0.1875 3.125 -0.1875 6 0 C6.9765625 1.7578125 7.953125 3.515625 8.9296875 5.2734375 C10.00897274 7.1612614 10.00897274 7.1612614 12 9 C6.38709677 8.23460411 6.38709677 8.23460411 3.9375 6.75 C3.298125 6.5025 2.65875 6.255 2 6 C0.31503702 6.96885372 -1.35178756 7.96986723 -3 9 C-5.3125 8.6875 -5.3125 8.6875 -7 8 C-6.21625 7.236875 -5.4325 6.47375 -4.625 5.6875 C-1.92742283 3.09108195 -1.92742283 3.09108195 0 0 Z " fill="#8B8C8C" transform="translate(30,43)"/>
<path d="M0 0 C12.04784547 -0.56968796 12.04784547 -0.56968796 16 3 C17.3125 5.1875 17.3125 5.1875 18 7 C16.4375 7.75 16.4375 7.75 14 8 C12.24762928 7.05891202 10.49760446 6.10760323 8.8125 5.05078125 C6.8183009 3.81303666 6.8183009 3.81303666 3.625 2.875 C2.75875 2.58625 1.8925 2.2975 1 2 C0.67 1.34 0.34 0.68 0 0 Z " fill="#787545" transform="translate(14,63)"/>
<path d="M0 0 C0.027193 1.58323688 0.04648306 3.16661062 0.0625 4.75 C0.07410156 5.63171875 0.08570313 6.5134375 0.09765625 7.421875 C0.00826198 9.7818838 -0.33087179 11.74498524 -1 14 C-2.65 14 -4.3 14 -6 14 C-6 13.34 -6 12.68 -6 12 C-5.34 12 -4.68 12 -4 12 C-4.66 11.01 -5.32 10.02 -6 9 C-6.25760279 6.30547479 -6.08900053 3.71451625 -6 1 C-1.125 0 -1.125 0 0 0 Z " fill="#6B8476" transform="translate(15,28)"/>
<path d="M0 0 C0.33 0 0.66 0 1 0 C1.21802649 5.42546133 1.41468364 10.85113284 1.59204102 16.27807617 C1.6552578 18.12203391 1.72419101 19.96580528 1.79907227 21.80932617 C1.90603677 24.46764542 1.99205455 27.12596864 2.07421875 29.78515625 C2.11157639 30.60210464 2.14893402 31.41905304 2.18742371 32.26075745 C2.32641563 37.61714877 1.65045613 41.29623823 -1 46 C-2.485 46.495 -2.485 46.495 -4 47 C-3.78937424 46.45694717 -3.57874847 45.91389435 -3.36174011 45.35438538 C-1.31037629 39.71785974 -0.53692366 34.78241108 -0.48828125 28.80859375 C-0.46135445 27.56252098 -0.46135445 27.56252098 -0.43388367 26.29127502 C-0.38029082 23.6733996 -0.34605121 21.05570096 -0.3125 18.4375 C-0.27928169 16.64776211 -0.24478794 14.85804741 -0.20898438 13.06835938 C-0.12459479 8.71236833 -0.05754309 4.35642503 0 0 Z " fill="#E5E80F" transform="translate(47,5)"/>
<path d="M0 0 C0.33 0 0.66 0 1 0 C1.33 16.5 1.66 33 2 50 C0.515 50.495 0.515 50.495 -1 51 C-1.33 49.02 -1.66 47.04 -2 45 C-1.34 45 -0.68 45 0 45 C0 30.15 0 15.3 0 0 Z " fill="#F2F405" transform="translate(5,5)"/>
<path d="M0 0 C0.66 0.33 1.32 0.66 2 1 C1.3925183 10.31471939 -2.86621447 17.54784026 -9.64453125 23.8203125 C-10.31548828 24.40425781 -10.31548828 24.40425781 -11 25 C-11.33 24.01 -11.66 23.02 -12 22 C-10.9609375 20.52734375 -10.9609375 20.52734375 -9.375 18.9375 C-4.45340882 13.53407472 -1.19556837 7.22483253 0 0 Z " fill="#27251D" transform="translate(62,50)"/>
<path d="M0 0 C0.28617188 0.57621094 0.57234375 1.15242188 0.8671875 1.74609375 C1.58896507 3.18218223 2.32218296 4.61261796 3.0703125 6.03515625 C3.41835938 6.70417969 3.76640625 7.37320313 4.125 8.0625 C4.47820313 8.73410156 4.83140625 9.40570313 5.1953125 10.09765625 C6 12 6 12 6 15 C0.25 16.125 0.25 16.125 -2 15 C-1.73958333 13.01432292 -1.47916667 11.02864583 -1.21875 9.04296875 C-0.946767 6.84528294 -0.946767 6.84528294 -1 4 C-0.6937566 2.66018514 -0.36548445 1.32488113 0 0 Z " fill="#090B08" transform="translate(14,38)"/>
<path d="M0 0 C0.99 0.495 0.99 0.495 2 1 C2 1.66 2 2.32 2 3 C2.66 3 3.32 3 4 3 C4.15010038 6.67745923 4.08708828 9.69809397 3.0625 13.25 C1.67863346 18.13423484 1.34697169 22.95064883 1 28 C0.67 28 0.34 28 0 28 C0 18.76 0 9.52 0 0 Z " fill="#121203" transform="translate(6,24)"/>
<path d="M0 0 C1.98 0.495 1.98 0.495 4 1 C4.02716824 3.54173977 4.04691969 6.08318415 4.0625 8.625 C4.07087891 9.33785156 4.07925781 10.05070312 4.08789062 10.78515625 C4.10710296 14.97344438 3.8267327 18.8728462 3 23 C2.67 23 2.34 23 2 23 C1.31974363 21.00458132 0.65509503 19.00382009 0 17 C-0.2475 16.2575 -0.495 15.515 -0.75 14.75 C-0.8325 14.1725 -0.915 13.595 -1 13 C-0.34 12.34 0.32 11.68 1 11 C0.34 9.35 -0.32 7.7 -1 6 C-0.01 6.495 -0.01 6.495 1 7 C0.67 4.69 0.34 2.38 0 0 Z " fill="#29130A" transform="translate(55,24)"/>
<path d="M0 0 C2.64 0 5.28 0 8 0 C8 1.98 8 3.96 8 6 C7.34 5.34 6.68 4.68 6 4 C3.93125966 3.3574765 3.93125966 3.3574765 2 3 C2.18433594 3.71542969 2.36867188 4.43085938 2.55859375 5.16796875 C3.03550789 8.22781608 2.7434411 10.3083481 2.0625 13.3125 C1.86785156 14.19550781 1.67320313 15.07851563 1.47265625 15.98828125 C1.23869141 16.98408203 1.23869141 16.98408203 1 18 C0.67 18 0.34 18 0 18 C0 12.06 0 6.12 0 0 Z " fill="#060704" transform="translate(7,5)"/>
<path d="M0 0 C6.27 0 12.54 0 19 0 C19 0.66 19 1.32 19 2 C17.35 2 15.7 2 14 2 C14 2.99 14 3.98 14 5 C13.01 5 12.02 5 11 5 C11 4.34 11 3.68 11 3 C10.34 3 9.68 3 9 3 C9 3.66 9 4.32 9 5 C7.68 4.67 6.36 4.34 5 4 C5 3.34 5 2.68 5 2 C3.35 2 1.7 2 0 2 C0 1.34 0 0.68 0 0 Z " fill="#8B8B8B" transform="translate(38,53)"/>
<path d="M0 0 C1.32 0.66 2.64 1.32 4 2 C4 2.99 4 3.98 4 5 C4.99 5.33 5.98 5.66 7 6 C6.01 7.485 6.01 7.485 5 9 C5 9.99 5 10.98 5 12 C2.36 12 -0.28 12 -3 12 C-3 11.01 -3 10.02 -3 9 C-1.35 8.67 0.3 8.34 2 8 C1.484375 7.4225 0.96875 6.845 0.4375 6.25 C-1 4 -1 4 -0.6875 1.75 C-0.3471875 0.88375 -0.3471875 0.88375 0 0 Z " fill="#C5BD44" transform="translate(32,10)"/>
<path d="M0 0 C2 1 2 1 3 3 C4.32 2.67 5.64 2.34 7 2 C7.33 3.65 7.66 5.3 8 7 C8.99 7 9.98 7 11 7 C10.67 8.32 10.34 9.64 10 11 C9.34 11 8.68 11 8 11 C8 10.34 8 9.68 8 9 C5.03 8.505 5.03 8.505 2 8 C1.67 7.01 1.34 6.02 1 5 C0.01 5.495 0.01 5.495 -1 6 C-1.042721 4.33388095 -1.04063832 2.66617115 -1 1 C-0.67 0.67 -0.34 0.34 0 0 Z " fill="#C9261C" transform="translate(32,6)"/>
<path d="M0 0 C0 1.32 0 2.64 0 4 C-1.70866147 4.73706965 -3.41816826 5.47226975 -5.1328125 6.1953125 C-6.62758294 6.83950227 -8.09959894 7.53638973 -9.5625 8.25 C-12.66773022 9.20545545 -14.87249007 8.72732789 -18 8 C-14.4348862 6.18089865 -10.79447939 4.58581235 -7.12109375 3 C-0.7578125 0 -0.7578125 0 0 0 Z " fill="#343923" transform="translate(50,73)"/>
<path d="M0 0 C-1.3125 1.5 -1.3125 1.5 -3 3 C-3.99 3 -4.98 3 -6 3 C-6 3.99 -6 4.98 -6 6 C-7.32 6 -8.64 6 -10 6 C-10 4.35 -10 2.7 -10 1 C-6.21812119 -0.83691257 -4.05431692 -1.15837626 0 0 Z " fill="#D0251C" transform="translate(31,16)"/>
<path d="M0 0 C4.92127034 -0.16682272 8.50343896 -0.24828052 13 2 C12.67 2.99 12.34 3.98 12 5 C11.34 5 10.68 5 10 5 C10 4.34 10 3.68 10 3 C9.34 3 8.68 3 8 3 C8 3.66 8 4.32 8 5 C7.01 4.67 6.02 4.34 5 4 C5 3.34 5 2.68 5 2 C3.35 2 1.7 2 0 2 C0 1.34 0 0.68 0 0 Z " fill="#6E6E6E" transform="translate(8,53)"/>
<path d="M0 0 C0.33 0 0.66 0 1 0 C1.16811728 2.74991832 1.3345481 5.49992112 1.5 8.25 C1.54769531 9.02730469 1.59539063 9.80460937 1.64453125 10.60546875 C1.68964844 11.35957031 1.73476563 12.11367188 1.78125 12.890625 C1.82314453 13.58188477 1.86503906 14.27314453 1.90820312 14.98535156 C2.06990041 18.53409089 1.97278129 21.59526547 1 25 C0.34 25 -0.32 25 -1 25 C-0.67 16.75 -0.34 8.5 0 0 Z " fill="#070506" transform="translate(50,22)"/>
<path d="M0 0 C2.475 0.495 2.475 0.495 5 1 C6.04449911 4.13349732 5.93423645 4.98968256 5 8 C3.35 8 1.7 8 0 8 C0 5.36 0 2.72 0 0 Z " fill="#80998B" transform="translate(9,8)"/>
<path d="M0 0 C0.99 0 1.98 0 3 0 C3 0.66 3 1.32 3 2 C4.65 2 6.3 2 8 2 C8 2.99 8 3.98 8 5 C7.01 5 6.02 5 5 5 C5 4.34 5 3.68 5 3 C4.34 3 3.68 3 3 3 C3 3.66 3 4.32 3 5 C2.34 5 1.68 5 1 5 C1 4.34 1 3.68 1 3 C0.34 3 -0.32 3 -1 3 C-1 3.66 -1 4.32 -1 5 C-1.99 5 -2.98 5 -4 5 C-4.33 4.01 -4.66 3.02 -5 2 C-3.35 2 -1.7 2 0 2 C0 1.34 0 0.68 0 0 Z " fill="#4B4B4B" transform="translate(35,53)"/>
<path d="M0 0 C0.99 0.33 1.98 0.66 3 1 C3.33333333 2.33333333 3.66666667 3.66666667 4 5 C4.99 5.33 5.98 5.66 7 6 C6.67 6.66 6.34 7.32 6 8 C3.93359375 8.4140625 3.93359375 8.4140625 1.4375 8.625 C0.19806641 8.73714844 0.19806641 8.73714844 -1.06640625 8.8515625 C-2.02353516 8.92503906 -2.02353516 8.92503906 -3 9 C-1.35 7.68 0.3 6.36 2 5 C0.35 5 -1.3 5 -3 5 C-3.33 4.34 -3.66 3.68 -4 3 C-2.35 3 -0.7 3 1 3 C0.67 2.01 0.34 1.02 0 0 Z " fill="#8C7657" transform="translate(28,11)"/>
<path d="M0 0 C1.65 0 3.3 0 5 0 C4.01 0.495 4.01 0.495 3 1 C3 2.65 3 4.3 3 6 C5.31 6.33 7.62 6.66 10 7 C8.35 8.32 6.7 9.64 5 11 C4.15841464 9.73461631 3.32700252 8.46246221 2.5 7.1875 C1.80390625 6.12595703 1.80390625 6.12595703 1.09375 5.04296875 C0 3 0 3 0 0 Z " fill="#232115" transform="translate(8,55)"/>
<path d="M0 0 C4.83256305 0.41421969 6.82679218 2.46413986 10 6 C9.34 6 8.68 6 8 6 C7.67 6.66 7.34 7.32 7 8 C1.125 3.375 1.125 3.375 0 0 Z " fill="#DFE10F" transform="translate(11,67)"/>
<path d="M0 0 C0.33 0 0.66 0 1 0 C1.05410687 1.77049689 1.09284119 3.54146849 1.125 5.3125 C1.14820313 6.29863281 1.17140625 7.28476562 1.1953125 8.30078125 C1 11 1 11 -1 14 C-1 13.34 -1 12.68 -1 12 C-2.98 12 -4.96 12 -7 12 C-6.21625 11.505 -5.4325 11.01 -4.625 10.5 C-1.09968551 7.14255763 -0.86663179 4.72708251 0 0 Z " fill="#0B0807" transform="translate(58,41)"/>
<path d="M0 0 C0.99 0.33 1.98 0.66 3 1 C3 2.65 3 4.3 3 6 C3.99 6 4.98 6 6 6 C5.34 7.32 4.68 8.64 4 10 C-1.57142857 4.85714286 -1.57142857 4.85714286 -2 1 C-0.68 1.99 0.64 2.98 2 4 C1.34 2.68 0.68 1.36 0 0 Z " fill="#9A2E21" transform="translate(38,42)"/>
<path d="M0 0 C0.99 0.33 1.98 0.66 3 1 C3 3.31 3 5.62 3 8 C1.68 8 0.36 8 -1 8 C-1.04241723 5.66705225 -1.04092937 3.33297433 -1 1 C-0.67 0.67 -0.34 0.34 0 0 Z " fill="#9DC2AC" transform="translate(10,18)"/>
<path d="M0 0 C0.66 0 1.32 0 2 0 C1.44449305 3.59905908 0.25112752 4.99909799 -2.5625 7.25 C-3.20316406 7.77078125 -3.84382813 8.2915625 -4.50390625 8.828125 C-4.99761719 9.21484375 -5.49132813 9.6015625 -6 10 C-5.12808515 5.4934738 -3.09672921 3.32331916 0 0 Z " fill="#1D1C13" transform="translate(56,65)"/>
<path d="M0 0 C-0.25 1.875 -0.25 1.875 -1 4 C-2.8125 5.3125 -2.8125 5.3125 -5 6 C-7.25 5.625 -7.25 5.625 -9 5 C-4.5 0 -4.5 0 0 0 Z " fill="#B2B2B0" transform="translate(32,46)"/>
<path d="M0 0 C0.66 0.33 1.32 0.66 2 1 C1.67 3.31 1.34 5.62 1 8 C-0.32 8 -1.64 8 -3 8 C-3 7.34 -3 6.68 -3 6 C-2.34 6 -1.68 6 -1 6 C-1.0309375 4.7934375 -1.0309375 4.7934375 -1.0625 3.5625 C-1 1 -1 1 0 0 Z " fill="#B9241A" transform="translate(44,40)"/>
<path d="M0 0 C0.33 0.99 0.66 1.98 1 3 C-1.64 3 -4.28 3 -7 3 C-7 2.01 -7 1.02 -7 0 C-4.3333581 -1.33332095 -2.83319697 -0.67102033 0 0 Z " fill="#C8BA26" transform="translate(36,19)"/>
<path d="M0 0 C0 0.66 0 1.32 0 2 C-3.37767394 3.12589131 -4.60274909 2.72798234 -8 2 C-9.6662553 1.9629721 -11.33401319 1.95240038 -13 2 C-9.50504013 -1.49495987 -4.46845925 -1.48948642 0 0 Z " fill="#595751" transform="translate(51,63)"/>
<path d="M0 0 C0.33 0 0.66 0 1 0 C1 3.3 1 6.6 1 10 C0.67 8.68 0.34 7.36 0 6 C-1.65 6.33 -3.3 6.66 -5 7 C-4.67 5.68 -4.34 4.36 -4 3 C-2.02 3.495 -2.02 3.495 0 4 C0 2.68 0 1.36 0 0 Z " fill="#0D2C1D" transform="translate(14,12)"/>
<path d="M0 0 C0.33 0.66 0.66 1.32 1 2 C0.67 2.99 0.34 3.98 0 5 C-3.1967 6.37001429 -5.69903842 5.8252404 -9 5 C-6.08596738 3.05731159 -3.14191424 1.53604696 0 0 Z " fill="#D4D50F" transform="translate(44,72)"/>
<path d="M0 0 C0.99 0 1.98 0 3 0 C4.05404945 3.98196457 3.84098656 6.98195309 3 11 C2.67 11 2.34 11 2 11 C-0.51351351 3.62702703 -0.51351351 3.62702703 -1 1 C-0.67 0.67 -0.34 0.34 0 0 Z " fill="#4A2B0E" transform="translate(55,36)"/>
<path d="M0 0 C0.99 0.66 1.98 1.32 3 2 C3.1875 4.625 3.1875 4.625 3 7 C1.33333333 7 -0.33333333 7 -2 7 C-1.42415568 4.61435923 -0.77772405 2.33317216 0 0 Z " fill="#C19E12" transform="translate(54,25)"/>
<path d="M0 0 C0.33 0 0.66 0 1 0 C1.33 5.94 1.66 11.88 2 18 C1.01 18 0.02 18 -1 18 C-0.505 9.09 -0.505 9.09 0 0 Z " fill="#DBDDDB" transform="translate(32,24)"/>
<path d="M0 0 C0.99 0.66 1.98 1.32 3 2 C3.1875 4.625 3.1875 4.625 3 7 C1.33333333 7 -0.33333333 7 -2 7 C-1.42415568 4.61435923 -0.77772405 2.33317216 0 0 Z " fill="#BF9E12" transform="translate(54,10)"/>
<path d="M0 0 C0.66 0.33 1.32 0.66 2 1 C2.625 3.0625 2.625 3.0625 3 5 C3.99 4.67 4.98 4.34 6 4 C6 4.66 6 5.32 6 6 C5.01 6 4.02 6 3 6 C2.67 6.66 2.34 7.32 2 8 C1.67 7.01 1.34 6.02 1 5 C0.01 5.495 0.01 5.495 -1 6 C-1.042721 4.33388095 -1.04063832 2.66617115 -1 1 C-0.67 0.67 -0.34 0.34 0 0 Z " fill="#A03625" transform="translate(32,6)"/>
<path d="M0 0 C0.99 0.66 1.98 1.32 3 2 C2.34 3.32 1.68 4.64 1 6 C0.01 6 -0.98 6 -2 6 C-2 4.68 -2 3.36 -2 2 C-1.34 2 -0.68 2 0 2 C0 1.34 0 0.68 0 0 Z " fill="#33120D" transform="translate(54,45)"/>
<path d="M0 0 C1.125 1.75 1.125 1.75 2 4 C1.125 6.25 1.125 6.25 0 8 C0 7.01 0 6.02 0 5 C-0.99 5 -1.98 5 -3 5 C-3.33 4.01 -3.66 3.02 -4 2 C-2.68 2 -1.36 2 0 2 C0 1.34 0 0.68 0 0 Z " fill="#254833" transform="translate(13,24)"/>
<path d="M0 0 C1.98 1.65 3.96 3.3 6 5 C5.01 6.485 5.01 6.485 4 8 C2.35 6.02 0.7 4.04 -1 2 C-0.67 1.34 -0.34 0.68 0 0 Z " fill="#3A3A2D" transform="translate(10,67)"/>
<path d="M0 0 C3.25543229 0.34879632 4.01873107 1.02133261 6.25 3.5625 C6.8275 4.366875 7.405 5.17125 8 6 C5.03 5.505 5.03 5.505 2 5 C2 4.01 2 3.02 2 2 C1.34 2 0.68 2 0 2 C0 1.34 0 0.68 0 0 Z " fill="#BBBCBC" transform="translate(34,46)"/>
<path d="M0 0 C0.66 0.99 1.32 1.98 2 3 C1.34 4.32 0.68 5.64 0 7 C-0.99 6.67 -1.98 6.34 -3 6 C-1.125 1.125 -1.125 1.125 0 0 Z " fill="#040302" transform="translate(15,47)"/>
<path d="M0 0 C0.66 1.32 1.32 2.64 2 4 C1.34 4.66 0.68 5.32 0 6 C-0.99 6 -1.98 6 -3 6 C-2.625 3.5625 -2.625 3.5625 -2 1 C-1.34 0.67 -0.68 0.34 0 0 Z " fill="#D3D408" transform="translate(60,51)"/>
<path d="M0 0 C1.98 0 3.96 0 6 0 C4.1875 2 4.1875 2 2 4 C1.01 4 0.02 4 -1 4 C-0.67 2.68 -0.34 1.36 0 0 Z " fill="#B7B321" transform="translate(37,65)"/>
<path d="M0 0 C0.625 1.875 0.625 1.875 1 4 C0.34 4.66 -0.32 5.32 -1 6 C-1.99 6 -2.98 6 -4 6 C-4.33 5.01 -4.66 4.02 -5 3 C-4.34 3 -3.68 3 -3 3 C-2.67 2.34 -2.34 1.68 -2 1 C-1.67 1.33 -1.34 1.66 -1 2 C-0.67 1.34 -0.34 0.68 0 0 Z " fill="#6A3D12" transform="translate(57,14)"/>
<path d="M0 0 C-1.8125 1.5625 -1.8125 1.5625 -4 3 C-4.99 2.67 -5.98 2.34 -7 2 C-7 1.34 -7 0.68 -7 0 C-4.3333581 -1.33332095 -2.83319697 -0.67102033 0 0 Z " fill="#C0721D" transform="translate(31,16)"/>
<path d="" fill="#FFFFFF" transform="translate(0,0)"/>
</svg>
