<svg width="84" height="50" viewBox="0 0 84 50" fill="none" xmlns="http://www.w3.org/2000/svg">
<path d="M80.2292 43.1302H68.7273C66.844 43.1302 65.2552 41.7394 64.9936 39.8743C64.4537 36.027 62.9709 32.4821 60.7861 29.481L76.1282 18.3342C80.4307 24.2456 83.2344 31.3176 83.9817 38.9923C84.1974 41.2093 82.4566 43.1302 80.2292 43.1302Z" fill="#17C36B"/>
<path d="M76.1283 18.3342L60.7863 29.4811C57.9347 25.5614 53.8856 22.5689 49.177 21.0403L55.0383 3.00153C63.5919 5.77896 70.9467 11.2146 76.1283 18.3342Z" fill="#9CCF40"/>
<path d="M34.8223 21.0402C30.1138 22.5693 26.0651 25.5618 23.2135 29.481L7.87158 18.3341C13.0527 11.215 20.408 5.77888 28.9612 3.00183H28.9616L34.8223 21.0402Z" fill="#EB9632"/>
<path d="M23.2135 29.481C21.0288 32.4821 19.546 36.0269 19.0061 39.8742C18.7444 41.7392 17.1556 43.1302 15.2723 43.1302H3.77043C1.54308 43.1302 -0.197694 41.2092 0.0181058 38.9924C0.765249 31.3177 3.5691 24.2456 7.87161 18.3342L23.2135 29.481Z" fill="#E23E44"/>
<path d="M55.0383 3.00146L49.177 21.0402C46.9168 20.3066 44.5049 19.9099 41.9999 19.9099C39.4948 19.9099 37.0829 20.3066 34.8227 21.0402H34.8222L28.9614 3.00194C33.0676 1.66849 37.4492 0.948059 41.9998 0.948059C46.5505 0.947962 50.9322 1.66849 55.0383 3.00146Z" fill="#EDBE00"/>
<path d="M46.1426 39.3195C46.1426 30.4892 43.4955 22.1008 42.4333 19.0904C42.3051 18.727 41.6949 18.727 41.5667 19.0904C40.5045 22.1008 37.8574 30.4892 37.8574 39.3195H46.1426Z" fill="black"/>
<path d="M42 49.9286C45.7547 49.9286 48.7984 46.8848 48.7984 43.1302C48.7984 39.3755 45.7547 36.3318 42 36.3318C38.2454 36.3318 35.2017 39.3755 35.2017 43.1302C35.2017 46.8848 38.2454 49.9286 42 49.9286Z" fill="#D8D8D8"/>
</svg>
