<svg width="28" height="28" viewBox="0 0 28 28" fill="none" xmlns="http://www.w3.org/2000/svg">
<g clip-path="url(#clip0_57_22)">
<path d="M10.5 14C14.3605 14 17.5 10.8605 17.5 7C17.5 3.1395 14.3605 0 10.5 0C6.6395 0 3.5 3.1395 3.5 7C3.5 10.8605 6.6395 14 10.5 14ZM10.5 2.33333C13.0737 2.33333 15.1667 4.42633 15.1667 7C15.1667 9.57367 13.0737 11.6667 10.5 11.6667C7.92633 11.6667 5.83333 9.57367 5.83333 7C5.83333 4.42633 7.92633 2.33333 10.5 2.33333ZM26.9757 13.8588C25.6527 12.5358 23.3473 12.5358 22.0255 13.8588L12.8333 23.0498V28H17.7835L26.9745 18.809C27.636 18.1475 28 17.269 28 16.3333C28 15.3977 27.636 14.5192 26.9757 13.8588ZM25.3248 17.1582L16.8175 25.6667H15.1667V24.0158L23.6752 15.5085C24.115 15.0675 24.8838 15.0675 25.3248 15.5085C25.5453 15.7278 25.6667 16.0207 25.6667 16.3333C25.6667 16.646 25.5453 16.9377 25.3248 17.1582ZM13.9172 18.6667H5.83333C3.90367 18.6667 2.33333 20.237 2.33333 22.1667V28H0V22.1667C0 18.9502 2.61683 16.3333 5.83333 16.3333H15.1667C15.5038 16.3333 15.8293 16.3777 16.1513 16.4325L13.9172 18.6667Z" fill="white"/>
</g>
<defs>
<clipPath id="clip0_57_22">
<rect width="28" height="28" fill="white"/>
</clipPath>
</defs>
</svg>
